<?xml version="1.0" encoding="UTF-8" standalone="no"?>
<!-- Created with Inkscape (http://www.inkscape.org/) -->

<svg
   version="1.1"
   id="svg2"
   width="2666.6667"
   height="2666.6667"
   viewBox="0 0 2666.6667 2666.6667"
   sodipodi:docname="logo.eps"
   xmlns:inkscape="http://www.inkscape.org/namespaces/inkscape"
   xmlns:sodipodi="http://sodipodi.sourceforge.net/DTD/sodipodi-0.dtd"
   xmlns="http://www.w3.org/2000/svg"
   xmlns:svg="http://www.w3.org/2000/svg">
  <defs
     id="defs6" />
  <sodipodi:namedview
     id="namedview4"
     pagecolor="#ffffff"
     bordercolor="#000000"
     borderopacity="0.25"
     inkscape:showpageshadow="2"
     inkscape:pageopacity="0.0"
     inkscape:pagecheckerboard="0"
     inkscape:deskcolor="#d1d1d1" />
  <g
     id="g8"
     inkscape:groupmode="layer"
     inkscape:label="ink_ext_XXXXXX"
     transform="matrix(1.3333333,0,0,-1.3333333,0,2666.6667)">
    <g
       id="g10"
       transform="scale(0.1)">
      <path
         d="m 7529.69,9527.7 c 0,-455.5 369.23,-824.7 824.69,-824.7 v 0 c 418.19,0 763.44,311.3 817.18,714.8 v 3011.3 c 0,455.4 -369.22,824.7 -824.68,824.7 h -0.01 c -418.19,0 -763.44,-311.4 -817.18,-714.9 V 9527.7"
         style="fill:#4693d6;fill-opacity:1;fill-rule:nonzero;stroke:none"
         id="path12" />
      <path
         d="m 11645.6,13253.8 c -418.2,0 -763.4,-311.4 -817.2,-714.9 V 9460.2 c 0,-64.3 -2.5,-128.1 -7.5,-191.2 v -33.7 c 0,-88.4 -14,-173.6 -39.8,-253.4 -200.2,-999.4 -1015.61,-1776.3 -2034.46,-1919.4 353.08,-201.2 761.66,-316.3 1197.13,-316.3 v 0 h 104.93 c 1337.4,0 2421.6,1084.2 2421.6,2421.6 v 4086 h -824.7"
         style="fill:#4693d6;fill-opacity:1;fill-rule:nonzero;stroke:none"
         id="path14" />
    </g>
  </g>
</svg>
